<mxfile host="app.diagrams.net" modified="2021-11-23T05:47:16.904Z" agent="5.0 (Macintosh; Intel Mac OS X 10_15_7) AppleWebKit/537.36 (KHTML, like Gecko) Chrome/95.0.4638.69 Safari/537.36" etag="_LMqXcgpRLNV6cK0dlpX" version="15.7.4" type="github">
  <diagram id="6I0OCvxSQrVGMHxT2VVA" name="Page-1">
    <mxGraphModel dx="1046" dy="683" grid="1" gridSize="10" guides="1" tooltips="1" connect="1" arrows="1" fold="1" page="1" pageScale="1" pageWidth="2000" pageHeight="10000" math="0" shadow="0">
      <root>
        <mxCell id="0" />
        <mxCell id="1" parent="0" />
        <mxCell id="clksWyIu1OevAjdoJZes-113" value="" style="whiteSpace=wrap;html=1;rounded=0;shadow=0;glass=0;sketch=0;strokeWidth=1;fillColor=none;gradientColor=#ffffff;" vertex="1" parent="1">
          <mxGeometry x="880" y="1550" width="610" height="570" as="geometry" />
        </mxCell>
        <mxCell id="clksWyIu1OevAjdoJZes-112" value="" style="whiteSpace=wrap;html=1;rounded=0;shadow=0;glass=0;sketch=0;strokeWidth=1;fillColor=none;gradientColor=#ffffff;" vertex="1" parent="1">
          <mxGeometry x="240" y="1550" width="610" height="570" as="geometry" />
        </mxCell>
        <mxCell id="clksWyIu1OevAjdoJZes-42" value="" style="whiteSpace=wrap;html=1;rounded=1;shadow=0;glass=0;dashed=1;sketch=0;strokeWidth=1;fillColor=none;gradientColor=#ffffff;" vertex="1" parent="1">
          <mxGeometry x="400" y="1900" width="370" height="200" as="geometry" />
        </mxCell>
        <mxCell id="clksWyIu1OevAjdoJZes-41" value="" style="whiteSpace=wrap;html=1;rounded=1;shadow=0;glass=0;sketch=0;strokeWidth=1;fillColor=none;gradientColor=#ffffff;dashed=1;" vertex="1" parent="1">
          <mxGeometry x="400" y="1640" width="360" height="200" as="geometry" />
        </mxCell>
        <mxCell id="clksWyIu1OevAjdoJZes-2" value="构建请求" style="whiteSpace=wrap;html=1;fillColor=none;" vertex="1" parent="1">
          <mxGeometry x="240" y="2600" width="80" height="640" as="geometry" />
        </mxCell>
        <mxCell id="clksWyIu1OevAjdoJZes-3" value="预处理" style="whiteSpace=wrap;html=1;fillColor=none;" vertex="1" parent="1">
          <mxGeometry x="240" y="2360" width="80" height="200" as="geometry" />
        </mxCell>
        <mxCell id="clksWyIu1OevAjdoJZes-4" value="MBGNetwork" style="whiteSpace=wrap;html=1;fillColor=none;" vertex="1" parent="1">
          <mxGeometry x="280" y="1640" width="80" height="440" as="geometry" />
        </mxCell>
        <mxCell id="clksWyIu1OevAjdoJZes-6" value="&lt;span style=&quot;background-color: transparent&quot;&gt;&lt;font face=&quot;arial&quot;&gt;网络基础框架统一API封装层&lt;/font&gt;&lt;br&gt;&lt;/span&gt;&lt;canvas id=&quot;gliffy_node_209&quot; class=&quot;gliffy-graphic&quot; width=&quot;40&quot; height=&quot;69&quot; style=&quot;font-family: &amp;#34;pingfang sc&amp;#34; ; font-size: medium ; transform: none ; transform-origin: 0px 0px ; top: 1524px ; left: 1442.5px ; visibility: visible ; position: absolute ; z-index: 203&quot;&gt;&lt;/canvas&gt;&lt;canvas id=&quot;gliffy_node_210&quot; class=&quot;gliffy-graphic&quot; width=&quot;40&quot; height=&quot;74&quot; style=&quot;font-family: &amp;#34;pingfang sc&amp;#34; ; font-size: medium ; transform: none ; transform-origin: 0px 0px ; top: 1609px ; left: 1442.5px ; visibility: visible ; position: absolute ; z-index: 204&quot;&gt;&lt;/canvas&gt;&lt;canvas id=&quot;gliffy_node_213&quot; class=&quot;gliffy-graphic&quot; width=&quot;199&quot; height=&quot;74&quot; style=&quot;font-family: &amp;#34;pingfang sc&amp;#34; ; font-size: medium ; transform: none ; transform-origin: 0px 0px ; top: 1742.5px ; left: 1364px ; visibility: visible ; position: absolute ; z-index: 205&quot;&gt;&lt;/canvas&gt;" style="whiteSpace=wrap;html=1;fillColor=none;rounded=1;" vertex="1" parent="1">
          <mxGeometry x="360" y="2160" width="600" height="40" as="geometry" />
        </mxCell>
        <mxCell id="clksWyIu1OevAjdoJZes-7" value="&lt;span style=&quot;font-family: &amp;#34;arial&amp;#34; ; background-color: transparent&quot;&gt;获取网络请求调度管理实例&lt;/span&gt;&lt;canvas id=&quot;gliffy_node_209&quot; class=&quot;gliffy-graphic&quot; width=&quot;40&quot; height=&quot;69&quot; style=&quot;font-family: &amp;#34;pingfang sc&amp;#34; ; font-size: medium ; transform: none ; transform-origin: 0px 0px ; top: 1524px ; left: 1442.5px ; visibility: visible ; position: absolute ; z-index: 203&quot;&gt;&lt;/canvas&gt;&lt;canvas id=&quot;gliffy_node_210&quot; class=&quot;gliffy-graphic&quot; width=&quot;40&quot; height=&quot;74&quot; style=&quot;font-family: &amp;#34;pingfang sc&amp;#34; ; font-size: medium ; transform: none ; transform-origin: 0px 0px ; top: 1609px ; left: 1442.5px ; visibility: visible ; position: absolute ; z-index: 204&quot;&gt;&lt;/canvas&gt;&lt;canvas id=&quot;gliffy_node_213&quot; class=&quot;gliffy-graphic&quot; width=&quot;199&quot; height=&quot;74&quot; style=&quot;font-family: &amp;#34;pingfang sc&amp;#34; ; font-size: medium ; transform: none ; transform-origin: 0px 0px ; top: 1742.5px ; left: 1364px ; visibility: visible ; position: absolute ; z-index: 205&quot;&gt;&lt;/canvas&gt;&lt;div id=&quot;gliffy_node_214&quot; class=&quot;gliffy-text gliffy-graphic gliffy-rte-text n214 gliffy_node_214&quot; style=&quot;margin: 0px ; padding: 0px ; border: 0px ; line-height: normal ; background-color: transparent ; font-family: &amp;#34;pingfang sc&amp;#34; ; font-size: medium ; width: 154.333px ; height: 14px ; visibility: visible ; overflow: visible ; transform: none ; transform-origin: 0px 0px ; top: 1771.5px ; left: 1385.33px ; position: absolute ; z-index: 206&quot;&gt;&lt;/div&gt;" style="whiteSpace=wrap;html=1;fillColor=none;rounded=1;" vertex="1" parent="1">
          <mxGeometry x="360" y="2240" width="600" height="40" as="geometry" />
        </mxCell>
        <mxCell id="clksWyIu1OevAjdoJZes-8" value="" style="shape=flexArrow;endArrow=classic;html=1;rounded=0;dashed=1;" edge="1" parent="1">
          <mxGeometry width="50" height="50" relative="1" as="geometry">
            <mxPoint x="624" y="2300" as="sourcePoint" />
            <mxPoint x="624" y="2360" as="targetPoint" />
            <Array as="points">
              <mxPoint x="624" y="2400" />
            </Array>
          </mxGeometry>
        </mxCell>
        <mxCell id="clksWyIu1OevAjdoJZes-9" value="&lt;span style=&quot;font-family: &amp;#34;arial&amp;#34; ; background-color: transparent&quot;&gt;构建参数&lt;/span&gt;&lt;canvas id=&quot;gliffy_node_209&quot; class=&quot;gliffy-graphic&quot; width=&quot;40&quot; height=&quot;69&quot; style=&quot;font-family: &amp;#34;pingfang sc&amp;#34; ; font-size: medium ; transform: none ; transform-origin: 0px 0px ; top: 1524px ; left: 1442.5px ; visibility: visible ; position: absolute ; z-index: 203&quot;&gt;&lt;/canvas&gt;&lt;canvas id=&quot;gliffy_node_210&quot; class=&quot;gliffy-graphic&quot; width=&quot;40&quot; height=&quot;74&quot; style=&quot;font-family: &amp;#34;pingfang sc&amp;#34; ; font-size: medium ; transform: none ; transform-origin: 0px 0px ; top: 1609px ; left: 1442.5px ; visibility: visible ; position: absolute ; z-index: 204&quot;&gt;&lt;/canvas&gt;&lt;canvas id=&quot;gliffy_node_213&quot; class=&quot;gliffy-graphic&quot; width=&quot;199&quot; height=&quot;74&quot; style=&quot;font-family: &amp;#34;pingfang sc&amp;#34; ; font-size: medium ; transform: none ; transform-origin: 0px 0px ; top: 1742.5px ; left: 1364px ; visibility: visible ; position: absolute ; z-index: 205&quot;&gt;&lt;/canvas&gt;&lt;div id=&quot;gliffy_node_214&quot; class=&quot;gliffy-text gliffy-graphic gliffy-rte-text n214 gliffy_node_214&quot; style=&quot;margin: 0px ; padding: 0px ; border: 0px ; line-height: normal ; background-color: transparent ; font-family: &amp;#34;pingfang sc&amp;#34; ; font-size: medium ; width: 154.333px ; height: 14px ; visibility: visible ; overflow: visible ; transform: none ; transform-origin: 0px 0px ; top: 1771.5px ; left: 1385.33px ; position: absolute ; z-index: 206&quot;&gt;&lt;/div&gt;" style="whiteSpace=wrap;html=1;fillColor=none;rounded=1;" vertex="1" parent="1">
          <mxGeometry x="440" y="2600" width="360" height="40" as="geometry" />
        </mxCell>
        <mxCell id="clksWyIu1OevAjdoJZes-10" value="&lt;span style=&quot;font-family: &amp;#34;arial&amp;#34; ; background-color: transparent&quot;&gt;构建请求实例&lt;/span&gt;&lt;canvas id=&quot;gliffy_node_209&quot; class=&quot;gliffy-graphic&quot; width=&quot;40&quot; height=&quot;69&quot; style=&quot;font-family: &amp;#34;pingfang sc&amp;#34; ; font-size: medium ; transform: none ; transform-origin: 0px 0px ; top: 1524px ; left: 1442.5px ; visibility: visible ; position: absolute ; z-index: 203&quot;&gt;&lt;/canvas&gt;&lt;canvas id=&quot;gliffy_node_210&quot; class=&quot;gliffy-graphic&quot; width=&quot;40&quot; height=&quot;74&quot; style=&quot;font-family: &amp;#34;pingfang sc&amp;#34; ; font-size: medium ; transform: none ; transform-origin: 0px 0px ; top: 1609px ; left: 1442.5px ; visibility: visible ; position: absolute ; z-index: 204&quot;&gt;&lt;/canvas&gt;&lt;canvas id=&quot;gliffy_node_213&quot; class=&quot;gliffy-graphic&quot; width=&quot;199&quot; height=&quot;74&quot; style=&quot;font-family: &amp;#34;pingfang sc&amp;#34; ; font-size: medium ; transform: none ; transform-origin: 0px 0px ; top: 1742.5px ; left: 1364px ; visibility: visible ; position: absolute ; z-index: 205&quot;&gt;&lt;/canvas&gt;&lt;div id=&quot;gliffy_node_214&quot; class=&quot;gliffy-text gliffy-graphic gliffy-rte-text n214 gliffy_node_214&quot; style=&quot;margin: 0px ; padding: 0px ; border: 0px ; line-height: normal ; background-color: transparent ; font-family: &amp;#34;pingfang sc&amp;#34; ; font-size: medium ; width: 154.333px ; height: 14px ; visibility: visible ; overflow: visible ; transform: none ; transform-origin: 0px 0px ; top: 1771.5px ; left: 1385.33px ; position: absolute ; z-index: 206&quot;&gt;&lt;/div&gt;" style="whiteSpace=wrap;html=1;fillColor=none;rounded=1;glass=0;shadow=0;sketch=0;" vertex="1" parent="1">
          <mxGeometry x="440" y="2680" width="360" height="40" as="geometry" />
        </mxCell>
        <mxCell id="clksWyIu1OevAjdoJZes-13" value="&lt;span style=&quot;font-family: &amp;#34;arial&amp;#34; ; background-color: transparent&quot;&gt;请求 Method&lt;/span&gt;&lt;canvas id=&quot;gliffy_node_209&quot; class=&quot;gliffy-graphic&quot; width=&quot;40&quot; height=&quot;69&quot; style=&quot;font-family: &amp;#34;pingfang sc&amp;#34; ; font-size: medium ; transform: none ; transform-origin: 0px 0px ; top: 1524px ; left: 1442.5px ; visibility: visible ; position: absolute ; z-index: 203&quot;&gt;&lt;/canvas&gt;&lt;canvas id=&quot;gliffy_node_210&quot; class=&quot;gliffy-graphic&quot; width=&quot;40&quot; height=&quot;74&quot; style=&quot;font-family: &amp;#34;pingfang sc&amp;#34; ; font-size: medium ; transform: none ; transform-origin: 0px 0px ; top: 1609px ; left: 1442.5px ; visibility: visible ; position: absolute ; z-index: 204&quot;&gt;&lt;/canvas&gt;&lt;canvas id=&quot;gliffy_node_213&quot; class=&quot;gliffy-graphic&quot; width=&quot;199&quot; height=&quot;74&quot; style=&quot;font-family: &amp;#34;pingfang sc&amp;#34; ; font-size: medium ; transform: none ; transform-origin: 0px 0px ; top: 1742.5px ; left: 1364px ; visibility: visible ; position: absolute ; z-index: 205&quot;&gt;&lt;/canvas&gt;&lt;div id=&quot;gliffy_node_214&quot; class=&quot;gliffy-text gliffy-graphic gliffy-rte-text n214 gliffy_node_214&quot; style=&quot;margin: 0px ; padding: 0px ; border: 0px ; line-height: normal ; background-color: transparent ; font-family: &amp;#34;pingfang sc&amp;#34; ; font-size: medium ; width: 154.333px ; height: 14px ; visibility: visible ; overflow: visible ; transform: none ; transform-origin: 0px 0px ; top: 1771.5px ; left: 1385.33px ; position: absolute ; z-index: 206&quot;&gt;&lt;/div&gt;" style="whiteSpace=wrap;html=1;fillColor=none;rounded=1;glass=0;shadow=0;sketch=0;" vertex="1" parent="1">
          <mxGeometry x="800" y="2740" width="200" height="40" as="geometry" />
        </mxCell>
        <mxCell id="clksWyIu1OevAjdoJZes-16" value="&lt;font face=&quot;arial&quot;&gt;构造 urlRequest&lt;/font&gt;" style="whiteSpace=wrap;html=1;fillColor=none;rounded=1;glass=0;shadow=0;sketch=0;" vertex="1" parent="1">
          <mxGeometry x="440" y="3040" width="360" height="40" as="geometry" />
        </mxCell>
        <mxCell id="clksWyIu1OevAjdoJZes-17" value="&lt;font face=&quot;arial&quot;&gt;构造 sessionManager&lt;/font&gt;" style="whiteSpace=wrap;html=1;fillColor=none;rounded=1;glass=0;shadow=0;sketch=0;" vertex="1" parent="1">
          <mxGeometry x="440" y="3120" width="360" height="40" as="geometry" />
        </mxCell>
        <mxCell id="clksWyIu1OevAjdoJZes-18" value="&lt;font face=&quot;arial&quot;&gt;构造 dataTask&lt;/font&gt;" style="whiteSpace=wrap;html=1;fillColor=none;rounded=1;glass=0;shadow=0;sketch=0;" vertex="1" parent="1">
          <mxGeometry x="440" y="3200" width="360" height="40" as="geometry" />
        </mxCell>
        <mxCell id="clksWyIu1OevAjdoJZes-20" value="发起请求" style="whiteSpace=wrap;html=1;fillColor=none;" vertex="1" parent="1">
          <mxGeometry x="240" y="3280" width="80" height="160" as="geometry" />
        </mxCell>
        <mxCell id="clksWyIu1OevAjdoJZes-21" value="" style="shape=collate;whiteSpace=wrap;html=1;rounded=1;shadow=0;glass=0;sketch=0;fillColor=none;" vertex="1" parent="1">
          <mxGeometry x="240" y="3480" width="80" height="120" as="geometry" />
        </mxCell>
        <mxCell id="clksWyIu1OevAjdoJZes-22" value="&lt;font face=&quot;arial&quot;&gt;启动请求任务&lt;/font&gt;" style="whiteSpace=wrap;html=1;fillColor=none;rounded=1;glass=0;shadow=0;sketch=0;" vertex="1" parent="1">
          <mxGeometry x="440" y="3280" width="360" height="40" as="geometry" />
        </mxCell>
        <mxCell id="clksWyIu1OevAjdoJZes-24" value="" style="ellipse;html=1;verticalLabelPosition=bottom;labelBackgroundColor=#ffffff;verticalAlign=top;fillColor=#000000;rounded=1;shadow=0;glass=0;sketch=0;strokeWidth=20;" vertex="1" parent="1">
          <mxGeometry x="615" y="3610" width="10" height="10" as="geometry" />
        </mxCell>
        <mxCell id="clksWyIu1OevAjdoJZes-25" value="响应请求" style="whiteSpace=wrap;html=1;fillColor=none;" vertex="1" parent="1">
          <mxGeometry x="240" y="3660" width="80" height="220" as="geometry" />
        </mxCell>
        <mxCell id="clksWyIu1OevAjdoJZes-26" value="&lt;font face=&quot;arial&quot;&gt;请求结束&lt;/font&gt;" style="whiteSpace=wrap;html=1;fillColor=none;rounded=1;glass=0;shadow=0;sketch=0;" vertex="1" parent="1">
          <mxGeometry x="440" y="3660" width="360" height="40" as="geometry" />
        </mxCell>
        <mxCell id="clksWyIu1OevAjdoJZes-27" value="&lt;font face=&quot;arial&quot;&gt;请求结束&lt;/font&gt;" style="whiteSpace=wrap;html=1;fillColor=none;rounded=1;glass=0;shadow=0;sketch=0;" vertex="1" parent="1">
          <mxGeometry x="440" y="3740" width="100" height="40" as="geometry" />
        </mxCell>
        <mxCell id="clksWyIu1OevAjdoJZes-28" value="&lt;font face=&quot;arial&quot;&gt;请求结束&lt;/font&gt;" style="whiteSpace=wrap;html=1;fillColor=none;rounded=1;glass=0;shadow=0;sketch=0;" vertex="1" parent="1">
          <mxGeometry x="570" y="3740" width="100" height="40" as="geometry" />
        </mxCell>
        <mxCell id="clksWyIu1OevAjdoJZes-29" value="&lt;font face=&quot;arial&quot;&gt;上传/下载进度&lt;/font&gt;" style="whiteSpace=wrap;html=1;fillColor=none;rounded=1;glass=0;shadow=0;sketch=0;" vertex="1" parent="1">
          <mxGeometry x="700" y="3740" width="100" height="40" as="geometry" />
        </mxCell>
        <mxCell id="clksWyIu1OevAjdoJZes-30" value="&lt;font face=&quot;arial&quot;&gt;CallBack(block, Delegate)&lt;/font&gt;" style="whiteSpace=wrap;html=1;fillColor=none;rounded=1;glass=0;shadow=0;sketch=0;" vertex="1" parent="1">
          <mxGeometry x="440" y="3820" width="360" height="40" as="geometry" />
        </mxCell>
        <mxCell id="clksWyIu1OevAjdoJZes-31" value="" style="endArrow=none;dashed=1;html=1;dashPattern=1 3;strokeWidth=2;rounded=0;" edge="1" parent="1">
          <mxGeometry width="50" height="50" relative="1" as="geometry">
            <mxPoint x="195" y="2140" as="sourcePoint" />
            <mxPoint x="1065" y="2140" as="targetPoint" />
          </mxGeometry>
        </mxCell>
        <mxCell id="clksWyIu1OevAjdoJZes-32" value="" style="ellipse;html=1;verticalLabelPosition=bottom;labelBackgroundColor=#ffffff;verticalAlign=top;fillColor=#000000;rounded=1;shadow=0;glass=0;sketch=0;strokeWidth=20;gradientColor=#ffffff;" vertex="1" parent="1">
          <mxGeometry x="615" y="3380" width="10" height="10" as="geometry" />
        </mxCell>
        <mxCell id="clksWyIu1OevAjdoJZes-35" value="公共头 Plugin" style="whiteSpace=wrap;html=1;rounded=1;shadow=0;glass=0;sketch=0;strokeWidth=1;fillColor=none;gradientColor=#ffffff;" vertex="1" parent="1">
          <mxGeometry x="440" y="1680" width="120" height="40" as="geometry" />
        </mxCell>
        <mxCell id="clksWyIu1OevAjdoJZes-36" value="加密 Plugin" style="whiteSpace=wrap;html=1;rounded=1;shadow=0;glass=0;sketch=0;strokeWidth=1;fillColor=none;gradientColor=#ffffff;" vertex="1" parent="1">
          <mxGeometry x="600" y="1680" width="120" height="40" as="geometry" />
        </mxCell>
        <mxCell id="clksWyIu1OevAjdoJZes-37" value="ip 直连 Plugin" style="whiteSpace=wrap;html=1;rounded=1;shadow=0;glass=0;sketch=0;strokeWidth=1;fillColor=none;gradientColor=#ffffff;" vertex="1" parent="1">
          <mxGeometry x="440" y="1760" width="125" height="40" as="geometry" />
        </mxCell>
        <mxCell id="clksWyIu1OevAjdoJZes-39" value="自定义 reponse Plugin" style="whiteSpace=wrap;html=1;rounded=1;shadow=0;glass=0;sketch=0;strokeWidth=1;fillColor=none;gradientColor=#ffffff;" vertex="1" parent="1">
          <mxGeometry x="440" y="1940" width="125" height="40" as="geometry" />
        </mxCell>
        <mxCell id="clksWyIu1OevAjdoJZes-40" value="Refreshtoken Plugin" style="whiteSpace=wrap;html=1;rounded=1;shadow=0;glass=0;sketch=0;strokeWidth=1;fillColor=none;gradientColor=#ffffff;" vertex="1" parent="1">
          <mxGeometry x="440" y="2020" width="120" height="40" as="geometry" />
        </mxCell>
        <mxCell id="clksWyIu1OevAjdoJZes-45" value="" style="endArrow=classic;html=1;rounded=1;sketch=0;" edge="1" parent="1">
          <mxGeometry width="50" height="50" relative="1" as="geometry">
            <mxPoint x="620" y="3400" as="sourcePoint" />
            <mxPoint x="620" y="3600" as="targetPoint" />
            <Array as="points">
              <mxPoint x="620" y="3450" />
              <mxPoint x="860" y="3450" />
              <mxPoint x="860" y="3570" />
              <mxPoint x="620" y="3570" />
            </Array>
          </mxGeometry>
        </mxCell>
        <mxCell id="clksWyIu1OevAjdoJZes-49" value="" style="endArrow=classic;html=1;rounded=0;sketch=0;dashed=1;" edge="1" parent="1">
          <mxGeometry width="50" height="50" relative="1" as="geometry">
            <mxPoint x="800" y="3679.5" as="sourcePoint" />
            <mxPoint x="1120" y="3680" as="targetPoint" />
          </mxGeometry>
        </mxCell>
        <mxCell id="clksWyIu1OevAjdoJZes-51" value="分发 Plugin" style="whiteSpace=wrap;html=1;rounded=1;shadow=0;glass=0;dashed=1;sketch=0;strokeWidth=1;fillColor=none;gradientColor=#ffffff;" vertex="1" parent="1">
          <mxGeometry x="1100" y="3220" width="120" height="60" as="geometry" />
        </mxCell>
        <mxCell id="clksWyIu1OevAjdoJZes-52" value="分发 Plugin" style="whiteSpace=wrap;html=1;rounded=1;shadow=0;glass=0;dashed=1;sketch=0;strokeWidth=1;fillColor=none;gradientColor=#ffffff;" vertex="1" parent="1">
          <mxGeometry x="1120" y="3650" width="120" height="60" as="geometry" />
        </mxCell>
        <mxCell id="clksWyIu1OevAjdoJZes-53" value="" style="endArrow=classic;html=1;rounded=0;sketch=0;dashed=1;entryX=0;entryY=0.5;entryDx=0;entryDy=0;" edge="1" parent="1" target="clksWyIu1OevAjdoJZes-107">
          <mxGeometry width="50" height="50" relative="1" as="geometry">
            <mxPoint x="625" y="2450" as="sourcePoint" />
            <mxPoint x="1105" y="2450" as="targetPoint" />
          </mxGeometry>
        </mxCell>
        <mxCell id="clksWyIu1OevAjdoJZes-54" value="&lt;span style=&quot;font-family: &amp;#34;arial&amp;#34; ; background-color: transparent&quot;&gt;初始化&lt;/span&gt;&lt;canvas id=&quot;gliffy_node_209&quot; class=&quot;gliffy-graphic&quot; width=&quot;40&quot; height=&quot;69&quot; style=&quot;font-family: &amp;#34;pingfang sc&amp;#34; ; font-size: medium ; transform: none ; transform-origin: 0px 0px ; top: 1524px ; left: 1442.5px ; visibility: visible ; position: absolute ; z-index: 203&quot;&gt;&lt;/canvas&gt;&lt;canvas id=&quot;gliffy_node_210&quot; class=&quot;gliffy-graphic&quot; width=&quot;40&quot; height=&quot;74&quot; style=&quot;font-family: &amp;#34;pingfang sc&amp;#34; ; font-size: medium ; transform: none ; transform-origin: 0px 0px ; top: 1609px ; left: 1442.5px ; visibility: visible ; position: absolute ; z-index: 204&quot;&gt;&lt;/canvas&gt;&lt;canvas id=&quot;gliffy_node_213&quot; class=&quot;gliffy-graphic&quot; width=&quot;199&quot; height=&quot;74&quot; style=&quot;font-family: &amp;#34;pingfang sc&amp;#34; ; font-size: medium ; transform: none ; transform-origin: 0px 0px ; top: 1742.5px ; left: 1364px ; visibility: visible ; position: absolute ; z-index: 205&quot;&gt;&lt;/canvas&gt;&lt;div id=&quot;gliffy_node_214&quot; class=&quot;gliffy-text gliffy-graphic gliffy-rte-text n214 gliffy_node_214&quot; style=&quot;margin: 0px ; padding: 0px ; border: 0px ; line-height: normal ; background-color: transparent ; font-family: &amp;#34;pingfang sc&amp;#34; ; font-size: medium ; width: 154.333px ; height: 14px ; visibility: visible ; overflow: visible ; transform: none ; transform-origin: 0px 0px ; top: 1771.5px ; left: 1385.33px ; position: absolute ; z-index: 206&quot;&gt;&lt;/div&gt;" style="whiteSpace=wrap;html=1;fillColor=none;rounded=1;" vertex="1" parent="1">
          <mxGeometry x="440" y="2380" width="360" height="40" as="geometry" />
        </mxCell>
        <mxCell id="clksWyIu1OevAjdoJZes-56" value="校验参数" style="rhombus;whiteSpace=wrap;html=1;rounded=0;shadow=0;glass=0;sketch=0;strokeWidth=1;fillColor=none;gradientColor=#ffffff;" vertex="1" parent="1">
          <mxGeometry x="580" y="2480" width="80" height="80" as="geometry" />
        </mxCell>
        <mxCell id="clksWyIu1OevAjdoJZes-57" value="&lt;span style=&quot;font-family: &amp;#34;arial&amp;#34; ; background-color: transparent&quot;&gt;请求 URL&lt;/span&gt;&lt;canvas id=&quot;gliffy_node_209&quot; class=&quot;gliffy-graphic&quot; width=&quot;40&quot; height=&quot;69&quot; style=&quot;font-family: &amp;#34;pingfang sc&amp;#34; ; font-size: medium ; transform: none ; transform-origin: 0px 0px ; top: 1524px ; left: 1442.5px ; visibility: visible ; position: absolute ; z-index: 203&quot;&gt;&lt;/canvas&gt;&lt;canvas id=&quot;gliffy_node_210&quot; class=&quot;gliffy-graphic&quot; width=&quot;40&quot; height=&quot;74&quot; style=&quot;font-family: &amp;#34;pingfang sc&amp;#34; ; font-size: medium ; transform: none ; transform-origin: 0px 0px ; top: 1609px ; left: 1442.5px ; visibility: visible ; position: absolute ; z-index: 204&quot;&gt;&lt;/canvas&gt;&lt;canvas id=&quot;gliffy_node_213&quot; class=&quot;gliffy-graphic&quot; width=&quot;199&quot; height=&quot;74&quot; style=&quot;font-family: &amp;#34;pingfang sc&amp;#34; ; font-size: medium ; transform: none ; transform-origin: 0px 0px ; top: 1742.5px ; left: 1364px ; visibility: visible ; position: absolute ; z-index: 205&quot;&gt;&lt;/canvas&gt;&lt;div id=&quot;gliffy_node_214&quot; class=&quot;gliffy-text gliffy-graphic gliffy-rte-text n214 gliffy_node_214&quot; style=&quot;margin: 0px ; padding: 0px ; border: 0px ; line-height: normal ; background-color: transparent ; font-family: &amp;#34;pingfang sc&amp;#34; ; font-size: medium ; width: 154.333px ; height: 14px ; visibility: visible ; overflow: visible ; transform: none ; transform-origin: 0px 0px ; top: 1771.5px ; left: 1385.33px ; position: absolute ; z-index: 206&quot;&gt;&lt;/div&gt;" style="whiteSpace=wrap;html=1;fillColor=none;rounded=1;glass=0;shadow=0;sketch=0;" vertex="1" parent="1">
          <mxGeometry x="800" y="2800" width="200" height="40" as="geometry" />
        </mxCell>
        <mxCell id="clksWyIu1OevAjdoJZes-58" value="&lt;span style=&quot;font-family: &amp;#34;arial&amp;#34; ; background-color: transparent&quot;&gt;请求头&lt;/span&gt;&lt;canvas id=&quot;gliffy_node_209&quot; class=&quot;gliffy-graphic&quot; width=&quot;40&quot; height=&quot;69&quot; style=&quot;font-family: &amp;#34;pingfang sc&amp;#34; ; font-size: medium ; transform: none ; transform-origin: 0px 0px ; top: 1524px ; left: 1442.5px ; visibility: visible ; position: absolute ; z-index: 203&quot;&gt;&lt;/canvas&gt;&lt;canvas id=&quot;gliffy_node_210&quot; class=&quot;gliffy-graphic&quot; width=&quot;40&quot; height=&quot;74&quot; style=&quot;font-family: &amp;#34;pingfang sc&amp;#34; ; font-size: medium ; transform: none ; transform-origin: 0px 0px ; top: 1609px ; left: 1442.5px ; visibility: visible ; position: absolute ; z-index: 204&quot;&gt;&lt;/canvas&gt;&lt;canvas id=&quot;gliffy_node_213&quot; class=&quot;gliffy-graphic&quot; width=&quot;199&quot; height=&quot;74&quot; style=&quot;font-family: &amp;#34;pingfang sc&amp;#34; ; font-size: medium ; transform: none ; transform-origin: 0px 0px ; top: 1742.5px ; left: 1364px ; visibility: visible ; position: absolute ; z-index: 205&quot;&gt;&lt;/canvas&gt;&lt;div id=&quot;gliffy_node_214&quot; class=&quot;gliffy-text gliffy-graphic gliffy-rte-text n214 gliffy_node_214&quot; style=&quot;margin: 0px ; padding: 0px ; border: 0px ; line-height: normal ; background-color: transparent ; font-family: &amp;#34;pingfang sc&amp;#34; ; font-size: medium ; width: 154.333px ; height: 14px ; visibility: visible ; overflow: visible ; transform: none ; transform-origin: 0px 0px ; top: 1771.5px ; left: 1385.33px ; position: absolute ; z-index: 206&quot;&gt;&lt;/div&gt;" style="whiteSpace=wrap;html=1;fillColor=none;rounded=1;glass=0;shadow=0;sketch=0;" vertex="1" parent="1">
          <mxGeometry x="800" y="2860" width="200" height="40" as="geometry" />
        </mxCell>
        <mxCell id="clksWyIu1OevAjdoJZes-59" value="&lt;span style=&quot;font-family: &amp;#34;arial&amp;#34; ; background-color: transparent&quot;&gt;请求提&lt;/span&gt;&lt;canvas id=&quot;gliffy_node_209&quot; class=&quot;gliffy-graphic&quot; width=&quot;40&quot; height=&quot;69&quot; style=&quot;font-family: &amp;#34;pingfang sc&amp;#34; ; font-size: medium ; transform: none ; transform-origin: 0px 0px ; top: 1524px ; left: 1442.5px ; visibility: visible ; position: absolute ; z-index: 203&quot;&gt;&lt;/canvas&gt;&lt;canvas id=&quot;gliffy_node_210&quot; class=&quot;gliffy-graphic&quot; width=&quot;40&quot; height=&quot;74&quot; style=&quot;font-family: &amp;#34;pingfang sc&amp;#34; ; font-size: medium ; transform: none ; transform-origin: 0px 0px ; top: 1609px ; left: 1442.5px ; visibility: visible ; position: absolute ; z-index: 204&quot;&gt;&lt;/canvas&gt;&lt;canvas id=&quot;gliffy_node_213&quot; class=&quot;gliffy-graphic&quot; width=&quot;199&quot; height=&quot;74&quot; style=&quot;font-family: &amp;#34;pingfang sc&amp;#34; ; font-size: medium ; transform: none ; transform-origin: 0px 0px ; top: 1742.5px ; left: 1364px ; visibility: visible ; position: absolute ; z-index: 205&quot;&gt;&lt;/canvas&gt;&lt;div id=&quot;gliffy_node_214&quot; class=&quot;gliffy-text gliffy-graphic gliffy-rte-text n214 gliffy_node_214&quot; style=&quot;margin: 0px ; padding: 0px ; border: 0px ; line-height: normal ; background-color: transparent ; font-family: &amp;#34;pingfang sc&amp;#34; ; font-size: medium ; width: 154.333px ; height: 14px ; visibility: visible ; overflow: visible ; transform: none ; transform-origin: 0px 0px ; top: 1771.5px ; left: 1385.33px ; position: absolute ; z-index: 206&quot;&gt;&lt;/div&gt;" style="whiteSpace=wrap;html=1;fillColor=none;rounded=1;glass=0;shadow=0;sketch=0;" vertex="1" parent="1">
          <mxGeometry x="800" y="2920" width="200" height="40" as="geometry" />
        </mxCell>
        <mxCell id="clksWyIu1OevAjdoJZes-60" value="&lt;span style=&quot;font-family: &amp;#34;arial&amp;#34; ; background-color: transparent&quot;&gt;回调变量,优先级等参数&lt;/span&gt;&lt;canvas id=&quot;gliffy_node_209&quot; class=&quot;gliffy-graphic&quot; width=&quot;40&quot; height=&quot;69&quot; style=&quot;font-family: &amp;#34;pingfang sc&amp;#34; ; font-size: medium ; transform: none ; transform-origin: 0px 0px ; top: 1524px ; left: 1442.5px ; visibility: visible ; position: absolute ; z-index: 203&quot;&gt;&lt;/canvas&gt;&lt;canvas id=&quot;gliffy_node_210&quot; class=&quot;gliffy-graphic&quot; width=&quot;40&quot; height=&quot;74&quot; style=&quot;font-family: &amp;#34;pingfang sc&amp;#34; ; font-size: medium ; transform: none ; transform-origin: 0px 0px ; top: 1609px ; left: 1442.5px ; visibility: visible ; position: absolute ; z-index: 204&quot;&gt;&lt;/canvas&gt;&lt;canvas id=&quot;gliffy_node_213&quot; class=&quot;gliffy-graphic&quot; width=&quot;199&quot; height=&quot;74&quot; style=&quot;font-family: &amp;#34;pingfang sc&amp;#34; ; font-size: medium ; transform: none ; transform-origin: 0px 0px ; top: 1742.5px ; left: 1364px ; visibility: visible ; position: absolute ; z-index: 205&quot;&gt;&lt;/canvas&gt;&lt;div id=&quot;gliffy_node_214&quot; class=&quot;gliffy-text gliffy-graphic gliffy-rte-text n214 gliffy_node_214&quot; style=&quot;margin: 0px ; padding: 0px ; border: 0px ; line-height: normal ; background-color: transparent ; font-family: &amp;#34;pingfang sc&amp;#34; ; font-size: medium ; width: 154.333px ; height: 14px ; visibility: visible ; overflow: visible ; transform: none ; transform-origin: 0px 0px ; top: 1771.5px ; left: 1385.33px ; position: absolute ; z-index: 206&quot;&gt;&lt;/div&gt;" style="whiteSpace=wrap;html=1;fillColor=none;rounded=1;glass=0;shadow=0;sketch=0;" vertex="1" parent="1">
          <mxGeometry x="800" y="2980" width="200" height="40" as="geometry" />
        </mxCell>
        <mxCell id="clksWyIu1OevAjdoJZes-66" value="" style="curved=1;endArrow=classic;html=1;rounded=0;sketch=0;strokeColor=none;" edge="1" parent="1">
          <mxGeometry width="50" height="50" relative="1" as="geometry">
            <mxPoint x="690" y="2840" as="sourcePoint" />
            <mxPoint x="740" y="2790" as="targetPoint" />
            <Array as="points">
              <mxPoint x="740" y="2840" />
              <mxPoint x="690" y="2790" />
            </Array>
          </mxGeometry>
        </mxCell>
        <mxCell id="clksWyIu1OevAjdoJZes-69" value="" style="endArrow=classic;html=1;rounded=0;sketch=0;exitX=0.5;exitY=1;exitDx=0;exitDy=0;entryX=0.5;entryY=0;entryDx=0;entryDy=0;" edge="1" parent="1" source="clksWyIu1OevAjdoJZes-54" target="clksWyIu1OevAjdoJZes-56">
          <mxGeometry width="50" height="50" relative="1" as="geometry">
            <mxPoint x="800" y="2640" as="sourcePoint" />
            <mxPoint x="850" y="2590" as="targetPoint" />
          </mxGeometry>
        </mxCell>
        <mxCell id="clksWyIu1OevAjdoJZes-70" value="" style="endArrow=classic;html=1;rounded=0;sketch=0;exitX=0.5;exitY=1;exitDx=0;exitDy=0;" edge="1" parent="1">
          <mxGeometry width="50" height="50" relative="1" as="geometry">
            <mxPoint x="619.5" y="2560" as="sourcePoint" />
            <mxPoint x="620" y="2600" as="targetPoint" />
          </mxGeometry>
        </mxCell>
        <mxCell id="clksWyIu1OevAjdoJZes-73" value="" style="endArrow=classic;html=1;rounded=0;sketch=0;exitX=0.5;exitY=1;exitDx=0;exitDy=0;entryX=0.5;entryY=0;entryDx=0;entryDy=0;" edge="1" parent="1" source="clksWyIu1OevAjdoJZes-9" target="clksWyIu1OevAjdoJZes-10">
          <mxGeometry width="50" height="50" relative="1" as="geometry">
            <mxPoint x="700" y="2580" as="sourcePoint" />
            <mxPoint x="630" y="2610" as="targetPoint" />
          </mxGeometry>
        </mxCell>
        <mxCell id="clksWyIu1OevAjdoJZes-74" value="" style="endArrow=classic;html=1;rounded=1;sketch=0;exitX=1;exitY=0.5;exitDx=0;exitDy=0;entryX=0.5;entryY=0;entryDx=0;entryDy=0;" edge="1" parent="1" source="clksWyIu1OevAjdoJZes-10" target="clksWyIu1OevAjdoJZes-13">
          <mxGeometry width="50" height="50" relative="1" as="geometry">
            <mxPoint x="760" y="2930" as="sourcePoint" />
            <mxPoint x="810" y="2880" as="targetPoint" />
            <Array as="points">
              <mxPoint x="900" y="2700" />
            </Array>
          </mxGeometry>
        </mxCell>
        <mxCell id="clksWyIu1OevAjdoJZes-76" value="" style="endArrow=classic;html=1;rounded=1;sketch=0;exitX=0.5;exitY=1;exitDx=0;exitDy=0;entryX=0.5;entryY=0;entryDx=0;entryDy=0;" edge="1" parent="1" source="clksWyIu1OevAjdoJZes-13" target="clksWyIu1OevAjdoJZes-57">
          <mxGeometry width="50" height="50" relative="1" as="geometry">
            <mxPoint x="640" y="3150" as="sourcePoint" />
            <mxPoint x="690" y="3100" as="targetPoint" />
          </mxGeometry>
        </mxCell>
        <mxCell id="clksWyIu1OevAjdoJZes-77" value="" style="endArrow=classic;html=1;rounded=1;sketch=0;exitX=0.5;exitY=1;exitDx=0;exitDy=0;" edge="1" parent="1" source="clksWyIu1OevAjdoJZes-57" target="clksWyIu1OevAjdoJZes-58">
          <mxGeometry width="50" height="50" relative="1" as="geometry">
            <mxPoint x="910" y="2790" as="sourcePoint" />
            <mxPoint x="910" y="2810" as="targetPoint" />
          </mxGeometry>
        </mxCell>
        <mxCell id="clksWyIu1OevAjdoJZes-79" value="" style="endArrow=classic;html=1;rounded=1;sketch=0;exitX=0.5;exitY=1;exitDx=0;exitDy=0;" edge="1" parent="1" source="clksWyIu1OevAjdoJZes-18" target="clksWyIu1OevAjdoJZes-22">
          <mxGeometry width="50" height="50" relative="1" as="geometry">
            <mxPoint x="430" y="2810" as="sourcePoint" />
            <mxPoint x="430" y="2910" as="targetPoint" />
          </mxGeometry>
        </mxCell>
        <mxCell id="clksWyIu1OevAjdoJZes-80" value="" style="endArrow=classic;html=1;rounded=1;sketch=0;exitX=0.5;exitY=1;exitDx=0;exitDy=0;" edge="1" parent="1" source="clksWyIu1OevAjdoJZes-17" target="clksWyIu1OevAjdoJZes-18">
          <mxGeometry width="50" height="50" relative="1" as="geometry">
            <mxPoint x="440" y="2820" as="sourcePoint" />
            <mxPoint x="440" y="2920" as="targetPoint" />
          </mxGeometry>
        </mxCell>
        <mxCell id="clksWyIu1OevAjdoJZes-81" value="" style="endArrow=classic;html=1;rounded=1;sketch=0;exitX=0.5;exitY=1;exitDx=0;exitDy=0;" edge="1" parent="1" source="clksWyIu1OevAjdoJZes-16" target="clksWyIu1OevAjdoJZes-17">
          <mxGeometry width="50" height="50" relative="1" as="geometry">
            <mxPoint x="450" y="2830" as="sourcePoint" />
            <mxPoint x="450" y="2930" as="targetPoint" />
          </mxGeometry>
        </mxCell>
        <mxCell id="clksWyIu1OevAjdoJZes-82" value="" style="endArrow=classic;html=1;rounded=1;sketch=0;exitX=0;exitY=0.5;exitDx=0;exitDy=0;entryX=0.5;entryY=0;entryDx=0;entryDy=0;" edge="1" parent="1" source="clksWyIu1OevAjdoJZes-60" target="clksWyIu1OevAjdoJZes-16">
          <mxGeometry width="50" height="50" relative="1" as="geometry">
            <mxPoint x="460" y="2840" as="sourcePoint" />
            <mxPoint x="460" y="2940" as="targetPoint" />
            <Array as="points">
              <mxPoint x="620" y="3000" />
            </Array>
          </mxGeometry>
        </mxCell>
        <mxCell id="clksWyIu1OevAjdoJZes-83" value="" style="endArrow=classic;html=1;rounded=1;sketch=0;exitX=0.5;exitY=1;exitDx=0;exitDy=0;" edge="1" parent="1" source="clksWyIu1OevAjdoJZes-59" target="clksWyIu1OevAjdoJZes-60">
          <mxGeometry width="50" height="50" relative="1" as="geometry">
            <mxPoint x="470" y="2850" as="sourcePoint" />
            <mxPoint x="470" y="2950" as="targetPoint" />
          </mxGeometry>
        </mxCell>
        <mxCell id="clksWyIu1OevAjdoJZes-84" value="" style="endArrow=classic;html=1;rounded=1;sketch=0;exitX=0.5;exitY=1;exitDx=0;exitDy=0;" edge="1" parent="1" source="clksWyIu1OevAjdoJZes-58" target="clksWyIu1OevAjdoJZes-59">
          <mxGeometry width="50" height="50" relative="1" as="geometry">
            <mxPoint x="480" y="2860" as="sourcePoint" />
            <mxPoint x="480" y="2960" as="targetPoint" />
          </mxGeometry>
        </mxCell>
        <mxCell id="clksWyIu1OevAjdoJZes-87" value="" style="endArrow=classic;html=1;rounded=1;sketch=0;" edge="1" parent="1">
          <mxGeometry width="50" height="50" relative="1" as="geometry">
            <mxPoint x="620" y="3320" as="sourcePoint" />
            <mxPoint x="620" y="3370" as="targetPoint" />
          </mxGeometry>
        </mxCell>
        <mxCell id="clksWyIu1OevAjdoJZes-88" value="" style="endArrow=classic;html=1;rounded=1;sketch=0;" edge="1" parent="1" target="clksWyIu1OevAjdoJZes-26">
          <mxGeometry width="50" height="50" relative="1" as="geometry">
            <mxPoint x="620" y="3630" as="sourcePoint" />
            <mxPoint x="1030" y="3310" as="targetPoint" />
          </mxGeometry>
        </mxCell>
        <mxCell id="clksWyIu1OevAjdoJZes-89" value="" style="endArrow=classic;html=1;rounded=1;sketch=0;exitX=0.5;exitY=1;exitDx=0;exitDy=0;entryX=0.5;entryY=0;entryDx=0;entryDy=0;" edge="1" parent="1" source="clksWyIu1OevAjdoJZes-26" target="clksWyIu1OevAjdoJZes-27">
          <mxGeometry width="50" height="50" relative="1" as="geometry">
            <mxPoint x="1040" y="3220" as="sourcePoint" />
            <mxPoint x="1040" y="3320" as="targetPoint" />
          </mxGeometry>
        </mxCell>
        <mxCell id="clksWyIu1OevAjdoJZes-90" value="" style="endArrow=classic;html=1;rounded=1;sketch=0;entryX=0.5;entryY=0;entryDx=0;entryDy=0;" edge="1" parent="1" target="clksWyIu1OevAjdoJZes-28">
          <mxGeometry width="50" height="50" relative="1" as="geometry">
            <mxPoint x="620" y="3700" as="sourcePoint" />
            <mxPoint x="550" y="3780" as="targetPoint" />
          </mxGeometry>
        </mxCell>
        <mxCell id="clksWyIu1OevAjdoJZes-91" value="" style="endArrow=classic;html=1;rounded=1;sketch=0;entryX=0.5;entryY=0;entryDx=0;entryDy=0;exitX=0.5;exitY=1;exitDx=0;exitDy=0;dashed=1;" edge="1" parent="1" source="clksWyIu1OevAjdoJZes-26" target="clksWyIu1OevAjdoJZes-29">
          <mxGeometry width="50" height="50" relative="1" as="geometry">
            <mxPoint x="1060" y="3240" as="sourcePoint" />
            <mxPoint x="1060" y="3340" as="targetPoint" />
          </mxGeometry>
        </mxCell>
        <mxCell id="clksWyIu1OevAjdoJZes-92" value="" style="endArrow=classic;html=1;rounded=1;sketch=0;exitX=0.5;exitY=1;exitDx=0;exitDy=0;entryX=0.5;entryY=0;entryDx=0;entryDy=0;" edge="1" parent="1" source="clksWyIu1OevAjdoJZes-27" target="clksWyIu1OevAjdoJZes-30">
          <mxGeometry width="50" height="50" relative="1" as="geometry">
            <mxPoint x="539" y="3790" as="sourcePoint" />
            <mxPoint x="539" y="3890" as="targetPoint" />
          </mxGeometry>
        </mxCell>
        <mxCell id="clksWyIu1OevAjdoJZes-95" value="" style="endArrow=classic;html=1;rounded=1;sketch=0;exitX=0.5;exitY=1;exitDx=0;exitDy=0;" edge="1" parent="1" source="clksWyIu1OevAjdoJZes-28" target="clksWyIu1OevAjdoJZes-30">
          <mxGeometry width="50" height="50" relative="1" as="geometry">
            <mxPoint x="960" y="3750" as="sourcePoint" />
            <mxPoint x="960" y="3850" as="targetPoint" />
          </mxGeometry>
        </mxCell>
        <mxCell id="clksWyIu1OevAjdoJZes-96" value="" style="endArrow=classic;html=1;rounded=1;sketch=0;" edge="1" parent="1">
          <mxGeometry width="50" height="50" relative="1" as="geometry">
            <mxPoint x="749.5" y="3780" as="sourcePoint" />
            <mxPoint x="620" y="3820" as="targetPoint" />
          </mxGeometry>
        </mxCell>
        <mxCell id="clksWyIu1OevAjdoJZes-97" value="" style="endArrow=classic;html=1;rounded=1;sketch=0;exitX=1;exitY=0.5;exitDx=0;exitDy=0;dashed=1;" edge="1" parent="1" source="clksWyIu1OevAjdoJZes-30">
          <mxGeometry width="50" height="50" relative="1" as="geometry">
            <mxPoint x="980" y="3770" as="sourcePoint" />
            <mxPoint x="1120" y="3840" as="targetPoint" />
          </mxGeometry>
        </mxCell>
        <mxCell id="clksWyIu1OevAjdoJZes-100" value="datatask resunme" style="text;html=1;resizable=0;autosize=1;align=center;verticalAlign=middle;points=[];fillColor=none;strokeColor=none;rounded=0;shadow=0;glass=0;sketch=0;" vertex="1" parent="1">
          <mxGeometry x="615" y="3250" width="110" height="20" as="geometry" />
        </mxCell>
        <mxCell id="clksWyIu1OevAjdoJZes-101" value="分发 Plugin" style="whiteSpace=wrap;html=1;rounded=1;shadow=0;glass=0;dashed=1;sketch=0;strokeWidth=1;fillColor=none;gradientColor=#ffffff;" vertex="1" parent="1">
          <mxGeometry x="1120" y="3810" width="120" height="60" as="geometry" />
        </mxCell>
        <mxCell id="clksWyIu1OevAjdoJZes-102" value="拿到最原始的返回数据" style="text;html=1;resizable=0;autosize=1;align=center;verticalAlign=middle;points=[];fillColor=none;strokeColor=none;rounded=0;shadow=0;glass=0;sketch=0;" vertex="1" parent="1">
          <mxGeometry x="890" y="3660" width="140" height="20" as="geometry" />
        </mxCell>
        <mxCell id="clksWyIu1OevAjdoJZes-104" value="将要回调给调用方" style="text;html=1;resizable=0;autosize=1;align=center;verticalAlign=middle;points=[];fillColor=none;strokeColor=none;rounded=0;shadow=0;glass=0;sketch=0;" vertex="1" parent="1">
          <mxGeometry x="895" y="3820" width="110" height="20" as="geometry" />
        </mxCell>
        <mxCell id="clksWyIu1OevAjdoJZes-105" value="" style="endArrow=classic;html=1;rounded=1;dashed=1;sketch=0;exitX=0.065;exitY=-0.009;exitDx=0;exitDy=0;exitPerimeter=0;entryX=0;entryY=0.5;entryDx=0;entryDy=0;" edge="1" parent="1" source="clksWyIu1OevAjdoJZes-100" target="clksWyIu1OevAjdoJZes-51">
          <mxGeometry width="50" height="50" relative="1" as="geometry">
            <mxPoint x="760" y="3370" as="sourcePoint" />
            <mxPoint x="810" y="3320" as="targetPoint" />
          </mxGeometry>
        </mxCell>
        <mxCell id="clksWyIu1OevAjdoJZes-106" value="即将发起请求之前" style="text;html=1;resizable=0;autosize=1;align=center;verticalAlign=middle;points=[];fillColor=none;strokeColor=none;rounded=0;shadow=0;glass=0;sketch=0;" vertex="1" parent="1">
          <mxGeometry x="855" y="3220" width="110" height="20" as="geometry" />
        </mxCell>
        <mxCell id="clksWyIu1OevAjdoJZes-107" value="分发 Plugin" style="whiteSpace=wrap;html=1;rounded=1;shadow=0;glass=0;dashed=1;sketch=0;strokeWidth=1;fillColor=none;gradientColor=#ffffff;" vertex="1" parent="1">
          <mxGeometry x="1100" y="2420" width="120" height="60" as="geometry" />
        </mxCell>
        <mxCell id="clksWyIu1OevAjdoJZes-108" value="构建 request,开始进入组装流程" style="text;html=1;resizable=0;autosize=1;align=center;verticalAlign=middle;points=[];fillColor=none;strokeColor=none;rounded=0;shadow=0;glass=0;sketch=0;" vertex="1" parent="1">
          <mxGeometry x="760" y="2460" width="180" height="20" as="geometry" />
        </mxCell>
        <mxCell id="clksWyIu1OevAjdoJZes-109" value="异步提交" style="text;html=1;resizable=0;autosize=1;align=center;verticalAlign=middle;points=[];fillColor=none;strokeColor=none;rounded=0;shadow=0;glass=0;sketch=0;" vertex="1" parent="1">
          <mxGeometry x="515" y="2320" width="60" height="20" as="geometry" />
        </mxCell>
        <mxCell id="clksWyIu1OevAjdoJZes-110" value="串行队列" style="text;html=1;resizable=0;autosize=1;align=center;verticalAlign=middle;points=[];fillColor=none;strokeColor=none;rounded=0;shadow=0;glass=0;sketch=0;" vertex="1" parent="1">
          <mxGeometry x="670" y="2320" width="60" height="20" as="geometry" />
        </mxCell>
        <mxCell id="clksWyIu1OevAjdoJZes-111" value="HCBNetwork" style="whiteSpace=wrap;html=1;fillColor=none;" vertex="1" parent="1">
          <mxGeometry x="910" y="1640" width="80" height="440" as="geometry" />
        </mxCell>
        <mxCell id="clksWyIu1OevAjdoJZes-114" value="正常" style="text;html=1;resizable=0;autosize=1;align=center;verticalAlign=middle;points=[];fillColor=none;strokeColor=none;rounded=0;shadow=0;glass=0;sketch=0;" vertex="1" parent="1">
          <mxGeometry x="625" y="2570" width="40" height="20" as="geometry" />
        </mxCell>
        <mxCell id="clksWyIu1OevAjdoJZes-115" value="" style="endArrow=classic;html=1;rounded=1;sketch=0;exitX=1;exitY=0.5;exitDx=0;exitDy=0;" edge="1" parent="1" source="clksWyIu1OevAjdoJZes-56">
          <mxGeometry width="50" height="50" relative="1" as="geometry">
            <mxPoint x="780" y="2710" as="sourcePoint" />
            <mxPoint x="1100" y="2520" as="targetPoint" />
          </mxGeometry>
        </mxCell>
        <mxCell id="clksWyIu1OevAjdoJZes-116" value="非法" style="text;html=1;resizable=0;autosize=1;align=center;verticalAlign=middle;points=[];fillColor=none;strokeColor=none;rounded=0;shadow=0;glass=0;sketch=0;" vertex="1" parent="1">
          <mxGeometry x="815" y="2530" width="40" height="20" as="geometry" />
        </mxCell>
        <mxCell id="clksWyIu1OevAjdoJZes-117" value="断言并执行失败回调" style="whiteSpace=wrap;html=1;rounded=0;shadow=0;glass=0;sketch=0;strokeWidth=1;fillColor=none;gradientColor=#ffffff;" vertex="1" parent="1">
          <mxGeometry x="1100" y="2500" width="140" height="40" as="geometry" />
        </mxCell>
      </root>
    </mxGraphModel>
  </diagram>
</mxfile>
